<?xml version="1.0" encoding="UTF-8"?><svg xmlns="http://www.w3.org/2000/svg" viewBox="0 0 771.71 771.71"><defs><style>.d{fill:#fff;}.e{fill:#ffe85e;}.f{fill:#ffb132;}.g{fill:#d97102;}</style></defs><g id="a"/><g id="b"><g id="c"><g><polygon class="e" points="144.7 578.78 192.93 578.78 192.93 627.01 289.39 627.01 289.39 675.25 482.32 675.25 482.32 627.01 578.78 627.01 578.78 578.78 627.01 578.78 627.01 482.32 675.25 482.32 675.25 289.39 627.01 289.39 627.01 192.93 578.78 192.93 578.78 144.7 482.32 144.7 482.32 96.46 337.62 96.46 337.62 144.7 289.39 144.7 289.39 192.93 482.32 192.93 482.32 241.16 530.55 241.16 530.55 289.39 578.78 289.39 578.78 482.32 530.55 482.32 530.55 530.55 482.32 530.55 482.32 578.78 289.39 578.78 289.39 530.55 241.16 530.55 241.16 482.32 192.93 482.32 192.93 289.39 144.7 289.39 144.7 337.62 96.46 337.62 96.46 482.32 144.7 482.32 144.7 578.78"/><polygon class="e" points="241.16 289.39 241.16 241.16 289.39 241.16 289.39 192.93 192.93 192.93 192.93 289.39 241.16 289.39"/><polygon class="e" points="434.09 289.39 434.09 337.62 385.86 337.62 385.86 385.86 337.62 385.86 337.62 434.09 289.39 434.09 289.39 482.32 289.39 530.55 385.86 530.55 385.86 482.32 434.09 482.32 434.09 434.09 482.32 434.09 482.32 385.86 530.55 385.86 530.55 289.39 482.32 289.39 434.09 289.39"/><rect class="d" x="289.39" y="96.46" width="48.23" height="48.23"/><rect class="d" x="192.93" y="144.7" width="96.46" height="48.23"/><rect class="d" x="144.7" y="192.93" width="48.23" height="96.46"/><polygon class="d" points="482.32 385.86 482.32 434.09 434.09 434.09 434.09 482.32 385.86 482.32 385.86 530.55 482.32 530.55 482.32 482.32 530.55 482.32 530.55 385.86 482.32 385.86"/><rect class="d" x="96.46" y="289.39" width="48.23" height="48.23"/><rect x="578.78" y="627.01" width="48.23" height="48.23"/><rect x="627.01" y="578.78" width="48.23" height="48.23"/><rect x="192.93" y="48.23" width="96.46" height="48.23"/><rect x="482.32" y="675.25" width="96.46" height="48.23"/><rect x="144.7" y="627.01" width="48.23" height="48.23"/><rect x="675.25" y="482.32" width="48.23" height="96.46"/><rect x="578.78" y="96.46" width="48.23" height="48.23"/><rect x="482.32" y="48.23" width="96.46" height="48.23"/><rect x="627.01" y="144.7" width="48.23" height="48.23"/><rect x="675.25" y="192.93" width="48.23" height="96.46"/><rect x="192.93" y="675.25" width="96.46" height="48.23"/><rect x="96.46" y="578.78" width="48.23" height="48.23"/><rect y="289.39" width="48.23" height="192.93"/><rect x="289.39" width="192.93" height="48.23"/><rect x="289.39" y="723.48" width="192.93" height="48.23"/><rect x="723.48" y="289.39" width="48.23" height="192.93"/><rect x="144.7" y="96.46" width="48.23" height="48.23"/><rect x="48.23" y="482.32" width="48.23" height="96.46"/><rect x="48.23" y="192.93" width="48.23" height="96.46"/><rect x="96.46" y="144.7" width="48.23" height="48.23"/><rect class="f" x="96.46" y="192.93" width="48.23" height="96.46"/><polygon class="f" points="96.46 337.62 96.46 289.39 48.23 289.39 48.23 482.32 96.46 482.32 96.46 337.62"/><polygon class="f" points="289.39 289.39 241.16 289.39 241.16 482.32 289.39 482.32 289.39 434.09 337.62 434.09 337.62 385.86 385.86 385.86 385.86 337.62 434.09 337.62 434.09 289.39 482.32 289.39 482.32 241.16 289.39 241.16 289.39 289.39"/><rect class="f" x="96.46" y="482.32" width="48.23" height="96.46"/><rect class="f" x="144.7" y="144.7" width="48.23" height="48.23"/><polygon class="f" points="530.55 482.32 578.78 482.32 578.78 289.39 530.55 289.39 530.55 385.86 530.55 482.32"/><rect class="f" x="482.32" y="482.32" width="48.23" height="48.23"/><polygon class="f" points="289.39 530.55 289.39 578.78 482.32 578.78 482.32 530.55 385.86 530.55 289.39 530.55"/><polygon class="f" points="337.62 96.46 482.32 96.46 482.32 48.23 289.39 48.23 289.39 96.46 337.62 96.46"/><rect class="f" x="192.93" y="96.46" width="96.46" height="48.23"/><rect class="f" x="289.39" y="675.25" width="192.93" height="48.23"/><rect class="f" x="192.93" y="627.01" width="96.46" height="48.23"/><rect class="f" x="144.7" y="578.78" width="48.23" height="48.23"/><rect class="g" x="482.32" y="627.01" width="96.46" height="48.23"/><rect class="g" x="675.25" y="289.39" width="48.23" height="192.93"/><rect class="g" x="578.78" y="578.78" width="48.23" height="48.23"/><rect class="g" x="627.01" y="192.93" width="48.23" height="96.46"/><rect class="g" x="578.78" y="144.7" width="48.23" height="48.23"/><rect class="g" x="482.32" y="96.46" width="96.46" height="48.23"/><rect class="g" x="627.01" y="482.32" width="48.23" height="96.46"/><rect class="g" x="289.39" y="192.93" width="192.93" height="48.23"/><rect class="g" x="241.16" y="482.32" width="48.23" height="48.23"/><rect class="g" x="482.32" y="241.16" width="48.23" height="48.23"/><rect class="g" x="192.93" y="289.39" width="48.23" height="192.93"/><rect class="g" x="241.16" y="241.16" width="48.23" height="48.23"/></g></g></g></svg>