<?xml version="1.0" encoding="UTF-8"?><svg xmlns="http://www.w3.org/2000/svg" viewBox="0 0 799.84 799.84"><defs><style>.d{fill:#fff;}.e{fill:#aaa;}.f{fill:#d9d9d9;}</style></defs><g id="a"/><g id="b"><g id="c"><g><path class="e" d="M695.19,265.37v-104.65h-56.06v104.65h-52.33v108.39h52.33v104.65h-52.33v52.32h-104.65v56.07h-108.39v52.32h-52.32v104.65h52.32v-52.32h52.33v52.32h56.06v-52.32h52.33v52.32h52.32v-104.65h52.33v-52.32h56.06v-108.39h52.32v-213.04h-52.32Z"/><path class="e" d="M213.04,743.77h56.06v-52.32h-56.06v52.32Z"/><g><path class="f" d="M534.47,104.65V52.33H269.1v52.32h104.65v56.06h-104.65v52.33h-56.06v52.33h-52.32v-52.33h52.32v-52.33h56.06v-56.06h-108.39v56.06h-52.33v104.65H56.06v213.04h52.33v108.39h52.33v52.32h52.32v52.33h108.39v-52.33h52.32v-108.39h52.33v56.07h56.06v-160.72h52.33v-52.32h52.32v-108.39h52.33V104.65h-104.65Z"/><path class="f" d="M321.43,530.73h-108.39v-52.32h-52.32v-104.65h108.39v52.32h52.33v104.65Z"/></g><path class="d" d="M373.75,104.65h-104.65v56.06h104.65v-56.06Z"/><path class="d" d="M269.1,160.71h-56.06v52.33h56.06v-52.33Z"/><path class="d" d="M213.04,213.04h-52.32v52.33h52.32v-52.33Z"/><rect x="269.1" width="265.37" height="52.33"/><rect x="160.72" y="52.33" width="108.39" height="52.32"/><rect x="534.47" y="52.33" width="104.65" height="52.32"/><rect x="108.39" y="104.65" width="52.33" height="56.06"/><rect x="639.12" y="104.65" width="56.06" height="56.06"/><rect x="56.06" y="160.71" width="52.33" height="104.65"/><rect x="695.19" y="160.71" width="52.32" height="104.65"/><rect y="265.37" width="56.06" height="213.04"/><rect x="747.51" y="265.37" width="52.33" height="213.04"/><polygon points="213.04 530.73 321.43 530.73 321.43 426.08 269.1 426.08 269.1 373.76 160.72 373.76 160.72 478.41 213.04 478.41 213.04 530.73"/><polygon points="586.8 478.41 639.12 478.41 639.12 373.76 534.47 373.76 534.47 426.08 482.15 426.08 482.15 530.73 586.8 530.73 586.8 478.41"/><rect x="56.06" y="478.41" width="52.33" height="108.39"/><rect x="695.19" y="478.41" width="52.32" height="108.39"/><rect x="373.75" y="530.73" width="52.33" height="56.07"/><rect x="108.39" y="586.8" width="52.33" height="52.32"/><rect x="639.12" y="586.8" width="56.06" height="52.32"/><rect x="160.72" y="639.12" width="52.32" height="104.65"/><rect x="586.8" y="639.12" width="52.33" height="104.65"/><polygon points="534.47 691.45 482.15 691.45 482.15 743.77 426.08 743.77 426.08 691.45 373.75 691.45 373.75 743.77 321.43 743.77 321.43 691.45 269.1 691.45 269.1 743.77 213.04 743.77 213.04 799.84 586.8 799.84 586.8 743.77 534.47 743.77 534.47 691.45"/></g></g></g></svg>