<?xml version="1.0" encoding="UTF-8"?><svg xmlns="http://www.w3.org/2000/svg" viewBox="0 0 852.58 799.29"><defs><style>.d{fill:#fff;}.e{fill:#63c6eb;}.f{fill:#009ad3;}.g{fill:#0c5ea8;}.h{fill:#2bf1ff;}</style></defs><g id="a"/><g id="b"><g id="c"><g><polygon class="d" points="266.43 213.15 266.43 53.29 213.14 53.29 213.14 106.57 159.86 106.57 159.86 159.86 106.57 159.86 106.57 213.15 266.43 213.15"/><polygon class="d" points="532.86 266.43 532.86 213.15 426.29 213.15 266.43 213.15 266.43 266.43 426.29 266.43 532.86 266.43"/><polygon class="d" points="639.44 319.72 692.72 319.72 692.72 266.43 532.86 266.43 532.86 319.72 639.44 319.72"/><rect x="639.44" y="532.86" width="53.29" height="53.29"/><rect x="692.72" y="479.58" width="53.29" height="53.29"/><rect x="746.01" y="426.29" width="53.29" height="53.29"/><rect x="586.15" y="586.15" width="53.29" height="53.29"/><polygon points="852.58 213.15 799.29 213.15 799.29 319.72 799.29 426.29 852.58 426.29 852.58 213.15"/><rect x="213.14" y="586.15" width="53.29" height="53.29"/><rect x="266.43" y="639.44" width="53.29" height="53.29"/><rect x="532.86" y="639.44" width="53.29" height="53.29"/><rect x="319.72" y="692.72" width="53.29" height="53.29"/><rect x="692.72" y="106.57" width="53.29" height="53.29"/><rect y="213.15" width="53.29" height="213.14"/><rect x="746.01" y="159.86" width="53.29" height="53.29"/><rect x="373" y="746.01" width="106.57" height="53.29"/><rect x="53.29" y="426.29" width="53.29" height="53.29"/><rect x="106.57" y="479.58" width="53.29" height="53.29"/><rect x="159.86" y="532.86" width="53.29" height="53.29"/><rect x="53.29" y="159.86" width="53.29" height="53.29"/><rect x="639.44" y="53.29" width="53.29" height="53.29"/><polygon points="426.29 53.29 532.86 53.29 586.15 53.29 639.44 53.29 639.44 0 213.14 0 213.14 53.29 266.43 53.29 426.29 53.29"/><rect x="106.57" y="106.57" width="53.29" height="53.29"/><rect x="159.86" y="53.29" width="53.29" height="53.29"/><rect x="479.58" y="692.72" width="53.29" height="53.29"/><rect class="h" x="106.57" y="426.29" width="53.29" height="53.29"/><polygon class="h" points="692.72 213.15 532.86 213.15 532.86 266.43 692.72 266.43 692.72 319.72 746.01 319.72 746.01 213.15 692.72 213.15"/><rect class="h" x="426.29" y="266.43" width="106.57" height="53.29"/><rect class="h" x="319.72" y="639.44" width="53.29" height="53.29"/><rect class="h" x="266.43" y="586.15" width="53.29" height="53.29"/><rect class="h" x="159.86" y="479.58" width="53.29" height="53.29"/><polygon class="h" points="106.57 319.72 159.86 319.72 159.86 266.43 266.43 266.43 266.43 213.15 106.57 213.15 53.29 213.15 53.29 426.29 106.57 426.29 106.57 319.72"/><rect class="h" x="213.14" y="532.86" width="53.29" height="53.29"/><rect class="g" x="692.72" y="426.29" width="53.29" height="53.29"/><rect class="g" x="479.58" y="639.44" width="53.29" height="53.29"/><rect class="g" x="639.44" y="479.58" width="53.29" height="53.29"/><rect class="g" x="373" y="692.72" width="106.57" height="53.29"/><rect class="g" x="532.86" y="586.15" width="53.29" height="53.29"/><rect class="g" x="586.15" y="532.86" width="53.29" height="53.29"/><rect class="g" x="692.72" y="159.86" width="53.29" height="53.29"/><rect class="g" x="746.01" y="319.72" width="53.29" height="106.57"/><rect class="g" x="586.15" y="53.29" width="53.29" height="53.29"/><rect class="g" x="639.44" y="106.57" width="53.29" height="53.29"/><rect class="e" x="213.14" y="479.58" width="53.29" height="53.29"/><polygon class="e" points="426.29 266.43 266.43 266.43 159.86 266.43 159.86 319.72 426.29 319.72 426.29 266.43"/><rect class="e" x="159.86" y="426.29" width="53.29" height="53.29"/><rect class="e" x="746.01" y="213.15" width="53.29" height="106.57"/><polygon class="e" points="639.44 426.29 639.44 319.72 532.86 319.72 426.29 319.72 426.29 639.44 479.58 639.44 479.58 586.15 532.86 586.15 532.86 532.86 586.15 532.86 586.15 426.29 639.44 426.29"/><rect class="e" x="266.43" y="532.86" width="53.29" height="53.29"/><rect class="e" x="319.72" y="586.15" width="53.29" height="53.29"/><rect class="e" x="426.29" y="53.29" width="106.57" height="159.86"/><rect class="e" x="106.57" y="319.72" width="53.29" height="106.57"/><polygon class="f" points="639.44 319.72 639.44 426.29 586.15 426.29 586.15 532.86 639.44 532.86 639.44 479.58 692.72 479.58 692.72 426.29 746.01 426.29 746.01 319.72 692.72 319.72 639.44 319.72"/><rect class="f" x="532.86" y="532.86" width="53.29" height="53.29"/><rect class="f" x="479.58" y="586.15" width="53.29" height="53.29"/><polygon class="f" points="426.29 319.72 159.86 319.72 159.86 426.29 213.14 426.29 213.14 479.58 266.43 479.58 266.43 532.86 319.72 532.86 319.72 586.15 373 586.15 373 639.44 373 692.72 479.58 692.72 479.58 639.44 426.29 639.44 426.29 319.72"/><polygon class="f" points="692.72 213.15 692.72 159.86 639.44 159.86 639.44 106.57 586.15 106.57 586.15 53.29 532.86 53.29 532.86 213.15 692.72 213.15"/><rect class="f" x="266.43" y="53.29" width="159.86" height="159.86"/></g></g></g></svg>