<?xml version="1.0" encoding="UTF-8"?><svg xmlns="http://www.w3.org/2000/svg" viewBox="0 0 137.35 137.35"><defs><style>.d{fill:#995600;}.e{fill:#cfd0d0;}.f{fill:#afafb0;}.g{fill:#a96000;}.h{fill:#753e00;}</style></defs><g id="a"/><g id="b"><g id="c"><g><rect class="f" x="63.39" y="132.07" width="5.29" height="5.28"/><rect class="e" x="63.39" y="126.78" width="5.29" height="5.28"/><rect class="f" x="63.39" y="121.5" width="5.29" height="5.29"/><rect class="d" x="63.39" y="116.22" width="5.29" height="5.28"/><rect class="g" x="63.39" y="110.94" width="5.29" height="5.28"/><rect class="g" x="63.39" y="105.65" width="5.29" height="5.29"/><rect class="g" x="63.39" y="100.37" width="5.29" height="5.28"/><rect class="g" x="63.39" y="95.09" width="5.29" height="5.28"/><rect class="f" x="63.39" y="89.8" width="5.29" height="5.29"/><rect class="e" x="63.39" y="84.52" width="5.29" height="5.28"/><rect class="f" x="63.39" y="79.24" width="5.29" height="5.28"/><rect class="e" x="63.39" y="73.96" width="5.29" height="5.29"/><rect class="e" x="63.39" y="68.67" width="5.29" height="5.28"/><rect class="e" x="63.39" y="63.39" width="5.29" height="5.28"/><rect class="e" x="63.39" y="58.11" width="5.29" height="5.29"/><rect class="f" x="63.39" y="52.83" width="5.29" height="5.28"/><rect class="e" x="63.39" y="47.55" width="5.29" height="5.28"/><rect class="f" x="63.39" y="42.26" width="5.29" height="5.29"/><rect class="g" x="63.39" y="36.98" width="5.29" height="5.28"/><rect class="g" x="63.39" y="31.7" width="5.29" height="5.28"/><rect class="g" x="63.39" y="26.41" width="5.29" height="5.29"/><rect class="g" x="63.39" y="21.13" width="5.29" height="5.28"/><rect class="d" x="63.39" y="15.85" width="5.29" height="5.28"/><rect class="f" x="63.39" y="10.56" width="5.29" height="5.29"/><rect class="e" x="63.39" y="5.28" width="5.29" height="5.28"/><rect class="f" x="63.39" width="5.29" height="5.28"/><rect class="f" x="58.11" y="132.07" width="5.28" height="5.28"/><rect class="e" x="58.11" y="126.78" width="5.28" height="5.28"/><rect class="f" x="58.11" y="121.5" width="5.28" height="5.29"/><rect class="d" x="58.11" y="116.22" width="5.28" height="5.28"/><rect class="d" x="58.11" y="110.94" width="5.28" height="5.28"/><rect class="d" x="58.11" y="105.65" width="5.28" height="5.29"/><rect class="d" x="58.11" y="100.37" width="5.28" height="5.28"/><rect class="d" x="58.11" y="95.09" width="5.28" height="5.28"/><rect class="f" x="58.11" y="89.8" width="5.28" height="5.29"/><rect class="e" x="58.11" y="84.52" width="5.28" height="5.28"/><rect class="f" x="58.11" y="79.24" width="5.28" height="5.28"/><rect class="e" x="58.11" y="73.96" width="5.28" height="5.29"/><rect class="e" x="58.11" y="68.67" width="5.28" height="5.28"/><rect class="e" x="58.11" y="63.39" width="5.28" height="5.28"/><rect class="e" x="58.11" y="58.11" width="5.28" height="5.29"/><rect class="f" x="58.11" y="52.83" width="5.28" height="5.28"/><rect class="e" x="58.11" y="47.55" width="5.28" height="5.28"/><rect class="f" x="58.11" y="42.26" width="5.28" height="5.29"/><rect class="d" x="58.11" y="36.98" width="5.28" height="5.28"/><rect class="d" x="58.11" y="31.7" width="5.28" height="5.28"/><rect class="d" x="58.11" y="26.41" width="5.28" height="5.29"/><rect class="d" x="58.11" y="21.13" width="5.28" height="5.28"/><rect class="d" x="58.11" y="15.85" width="5.28" height="5.28"/><rect class="f" x="58.11" y="10.56" width="5.28" height="5.29"/><rect class="e" x="58.11" y="5.28" width="5.28" height="5.28"/><rect class="f" x="58.11" width="5.28" height="5.28"/><rect class="f" x="52.83" y="132.07" width="5.28" height="5.28"/><rect class="e" x="52.83" y="126.78" width="5.28" height="5.28"/><rect class="f" x="52.83" y="121.5" width="5.28" height="5.29"/><rect class="h" x="52.83" y="116.22" width="5.28" height="5.28"/><rect class="h" x="52.83" y="110.94" width="5.28" height="5.28"/><rect class="h" x="52.83" y="105.65" width="5.28" height="5.29"/><rect class="h" x="52.83" y="100.37" width="5.28" height="5.28"/><rect class="h" x="52.83" y="95.09" width="5.28" height="5.28"/><rect class="h" x="52.83" y="89.8" width="5.28" height="5.29"/><rect class="f" x="52.83" y="84.52" width="5.28" height="5.28"/><rect class="e" x="52.83" y="79.24" width="5.28" height="5.28"/><rect class="f" x="52.83" y="73.96" width="5.28" height="5.29"/><rect class="f" x="52.83" y="68.67" width="5.28" height="5.28"/><rect class="f" x="52.83" y="63.39" width="5.28" height="5.28"/><rect class="f" x="52.83" y="58.11" width="5.28" height="5.29"/><rect class="e" x="52.83" y="52.83" width="5.28" height="5.28"/><rect class="f" x="52.83" y="47.55" width="5.28" height="5.28"/><rect class="h" x="52.83" y="42.26" width="5.28" height="5.29"/><rect class="h" x="52.83" y="36.98" width="5.28" height="5.28"/><rect class="h" x="52.83" y="31.7" width="5.28" height="5.28"/><rect class="h" x="52.83" y="26.41" width="5.28" height="5.29"/><rect class="h" x="52.83" y="21.13" width="5.28" height="5.28"/><rect class="h" x="52.83" y="15.85" width="5.28" height="5.28"/><rect class="f" x="52.83" y="10.56" width="5.28" height="5.29"/><rect class="e" x="52.83" y="5.28" width="5.28" height="5.28"/><rect class="f" x="52.83" width="5.28" height="5.28"/><rect class="f" x="47.55" y="126.78" width="5.29" height="5.28"/><rect class="e" x="47.55" y="121.5" width="5.29" height="5.29"/><rect class="f" x="47.55" y="116.22" width="5.29" height="5.28"/><rect class="d" x="47.55" y="110.94" width="5.29" height="5.28"/><rect class="d" x="47.55" y="105.65" width="5.29" height="5.29"/><rect class="d" x="47.55" y="100.37" width="5.29" height="5.28"/><rect class="d" x="47.55" y="95.09" width="5.29" height="5.28"/><rect class="d" x="47.55" y="89.8" width="5.29" height="5.29"/><rect class="d" x="47.55" y="84.52" width="5.29" height="5.28"/><rect class="f" x="47.55" y="79.24" width="5.29" height="5.28"/><rect class="e" x="47.55" y="73.96" width="5.29" height="5.29"/><rect class="e" x="47.55" y="68.67" width="5.29" height="5.28"/><rect class="e" x="47.55" y="63.39" width="5.29" height="5.28"/><rect class="e" x="47.55" y="58.11" width="5.29" height="5.29"/><rect class="f" x="47.55" y="52.83" width="5.29" height="5.28"/><rect class="d" x="47.55" y="47.55" width="5.29" height="5.28"/><rect class="d" x="47.55" y="42.26" width="5.29" height="5.29"/><rect class="d" x="47.55" y="36.98" width="5.29" height="5.28"/><rect class="d" x="47.55" y="31.7" width="5.29" height="5.28"/><rect class="d" x="47.55" y="26.41" width="5.29" height="5.29"/><rect class="d" x="47.55" y="21.13" width="5.29" height="5.28"/><rect class="f" x="47.55" y="15.85" width="5.29" height="5.28"/><rect class="e" x="47.55" y="10.56" width="5.29" height="5.29"/><rect class="f" x="47.55" y="5.28" width="5.29" height="5.28"/><rect class="f" x="42.26" y="126.78" width="5.28" height="5.28"/><rect class="e" x="42.26" y="121.5" width="5.28" height="5.29"/><rect class="f" x="42.26" y="116.22" width="5.28" height="5.28"/><rect class="d" x="42.26" y="110.94" width="5.28" height="5.28"/><rect class="g" x="42.26" y="105.65" width="5.28" height="5.29"/><rect class="g" x="42.26" y="100.37" width="5.28" height="5.28"/><rect class="g" x="42.26" y="95.09" width="5.28" height="5.28"/><rect class="g" x="42.26" y="89.8" width="5.28" height="5.29"/><rect class="g" x="42.26" y="84.52" width="5.28" height="5.28"/><rect class="d" x="42.26" y="79.24" width="5.28" height="5.28"/><rect class="f" x="42.26" y="73.96" width="5.28" height="5.29"/><rect class="f" x="42.26" y="68.67" width="5.28" height="5.28"/><rect class="f" x="42.26" y="63.39" width="5.28" height="5.28"/><rect class="f" x="42.26" y="58.11" width="5.28" height="5.29"/><rect class="d" x="42.26" y="52.83" width="5.28" height="5.28"/><rect class="g" x="42.26" y="47.55" width="5.28" height="5.28"/><rect class="g" x="42.26" y="42.26" width="5.28" height="5.29"/><rect class="g" x="42.26" y="36.98" width="5.28" height="5.28"/><rect class="g" x="42.26" y="31.7" width="5.28" height="5.28"/><rect class="g" x="42.26" y="26.41" width="5.28" height="5.29"/><rect class="d" x="42.26" y="21.13" width="5.28" height="5.28"/><rect class="f" x="42.26" y="15.85" width="5.28" height="5.28"/><rect class="e" x="42.26" y="10.56" width="5.28" height="5.29"/><rect class="f" x="42.26" y="5.28" width="5.28" height="5.28"/><rect class="f" x="36.98" y="121.5" width="5.28" height="5.29"/><rect class="e" x="36.98" y="116.22" width="5.28" height="5.28"/><rect class="f" x="36.98" y="110.94" width="5.28" height="5.28"/><rect class="d" x="36.98" y="105.65" width="5.28" height="5.29"/><rect class="d" x="36.98" y="100.37" width="5.28" height="5.28"/><rect class="d" x="36.98" y="95.09" width="5.28" height="5.28"/><rect class="d" x="36.98" y="89.8" width="5.28" height="5.29"/><rect class="d" x="36.98" y="84.52" width="5.28" height="5.28"/><rect class="d" x="36.98" y="79.24" width="5.28" height="5.28"/><rect class="d" x="36.98" y="73.96" width="5.28" height="5.29"/><rect class="d" x="36.98" y="68.67" width="5.28" height="5.28"/><rect class="d" x="36.98" y="63.39" width="5.28" height="5.28"/><rect class="d" x="36.98" y="58.11" width="5.28" height="5.29"/><rect class="d" x="36.98" y="52.83" width="5.28" height="5.28"/><rect class="d" x="36.98" y="47.55" width="5.28" height="5.28"/><rect class="d" x="36.98" y="42.26" width="5.28" height="5.29"/><rect class="d" x="36.98" y="36.98" width="5.28" height="5.28"/><rect class="d" x="36.98" y="31.7" width="5.28" height="5.28"/><rect class="d" x="36.98" y="26.41" width="5.28" height="5.29"/><rect class="f" x="36.98" y="21.13" width="5.28" height="5.28"/><rect class="e" x="36.98" y="15.85" width="5.28" height="5.28"/><rect class="f" x="36.98" y="10.56" width="5.28" height="5.29"/><rect class="f" x="31.7" y="121.5" width="5.29" height="5.29"/><rect class="e" x="31.7" y="116.22" width="5.29" height="5.28"/><rect class="f" x="31.7" y="110.94" width="5.29" height="5.28"/><rect class="h" x="31.7" y="105.65" width="5.29" height="5.29"/><rect class="h" x="31.7" y="100.37" width="5.29" height="5.28"/><rect class="h" x="31.7" y="95.09" width="5.29" height="5.28"/><rect class="h" x="31.7" y="89.8" width="5.29" height="5.29"/><rect class="h" x="31.7" y="84.52" width="5.29" height="5.28"/><rect class="h" x="31.7" y="79.24" width="5.29" height="5.28"/><rect class="h" x="31.7" y="73.96" width="5.29" height="5.29"/><rect class="h" x="31.7" y="68.67" width="5.29" height="5.28"/><rect class="h" x="31.7" y="63.39" width="5.29" height="5.28"/><rect class="h" x="31.7" y="58.11" width="5.29" height="5.29"/><rect class="h" x="31.7" y="52.83" width="5.29" height="5.28"/><rect class="h" x="31.7" y="47.55" width="5.29" height="5.28"/><rect class="h" x="31.7" y="42.26" width="5.29" height="5.29"/><rect class="h" x="31.7" y="36.98" width="5.29" height="5.28"/><rect class="h" x="31.7" y="31.7" width="5.29" height="5.28"/><rect class="h" x="31.7" y="26.41" width="5.29" height="5.29"/><rect class="f" x="31.7" y="21.13" width="5.29" height="5.28"/><rect class="e" x="31.7" y="15.85" width="5.29" height="5.28"/><rect class="f" x="31.7" y="10.56" width="5.29" height="5.29"/><rect class="f" x="26.42" y="116.22" width="5.28" height="5.28"/><rect class="e" x="26.42" y="110.94" width="5.28" height="5.28"/><rect class="f" x="26.42" y="105.65" width="5.28" height="5.29"/><rect class="d" x="26.42" y="100.37" width="5.28" height="5.28"/><rect class="d" x="26.42" y="95.09" width="5.28" height="5.28"/><rect class="d" x="26.42" y="89.8" width="5.28" height="5.29"/><rect class="d" x="26.42" y="84.52" width="5.28" height="5.28"/><rect class="d" x="26.42" y="79.24" width="5.28" height="5.28"/><rect class="d" x="26.42" y="73.96" width="5.28" height="5.29"/><rect class="d" x="26.42" y="68.67" width="5.28" height="5.28"/><rect class="d" x="26.42" y="63.39" width="5.28" height="5.28"/><rect class="d" x="26.42" y="58.11" width="5.28" height="5.29"/><rect class="d" x="26.42" y="52.83" width="5.28" height="5.28"/><rect class="d" x="26.42" y="47.55" width="5.28" height="5.28"/><rect class="d" x="26.42" y="42.26" width="5.28" height="5.29"/><rect class="d" x="26.42" y="36.98" width="5.28" height="5.28"/><rect class="d" x="26.42" y="31.7" width="5.28" height="5.28"/><rect class="f" x="26.42" y="26.41" width="5.28" height="5.29"/><rect class="e" x="26.42" y="21.13" width="5.28" height="5.28"/><rect class="f" x="26.42" y="15.85" width="5.28" height="5.28"/><rect class="f" x="21.13" y="110.94" width="5.28" height="5.28"/><rect class="e" x="21.13" y="105.65" width="5.28" height="5.29"/><rect class="f" x="21.13" y="100.37" width="5.28" height="5.28"/><rect class="f" x="21.13" y="95.09" width="5.28" height="5.28"/><rect class="d" x="21.13" y="89.8" width="5.28" height="5.29"/><rect class="d" x="21.13" y="84.52" width="5.28" height="5.28"/><rect class="g" x="21.13" y="79.24" width="5.28" height="5.28"/><rect class="g" x="21.13" y="73.96" width="5.28" height="5.29"/><rect class="g" x="21.13" y="68.67" width="5.28" height="5.28"/><rect class="g" x="21.13" y="63.39" width="5.28" height="5.28"/><rect class="g" x="21.13" y="58.11" width="5.28" height="5.29"/><rect class="g" x="21.13" y="52.83" width="5.28" height="5.28"/><rect class="d" x="21.13" y="47.55" width="5.28" height="5.28"/><rect class="d" x="21.13" y="42.26" width="5.28" height="5.29"/><rect class="f" x="21.13" y="36.98" width="5.28" height="5.28"/><rect class="f" x="21.13" y="31.7" width="5.28" height="5.28"/><rect class="e" x="21.13" y="26.41" width="5.28" height="5.29"/><rect class="f" x="21.13" y="21.13" width="5.28" height="5.28"/><rect class="f" x="15.85" y="105.65" width="5.29" height="5.29"/><rect class="e" x="15.85" y="100.37" width="5.29" height="5.28"/><rect class="e" x="15.85" y="95.09" width="5.29" height="5.28"/><rect class="f" x="15.85" y="89.8" width="5.29" height="5.29"/><rect class="f" x="15.85" y="84.52" width="5.29" height="5.28"/><rect class="d" x="15.85" y="79.24" width="5.29" height="5.28"/><rect class="d" x="15.85" y="73.96" width="5.29" height="5.29"/><rect class="d" x="15.85" y="68.67" width="5.29" height="5.28"/><rect class="d" x="15.85" y="63.39" width="5.29" height="5.28"/><rect class="d" x="15.85" y="58.11" width="5.29" height="5.29"/><rect class="d" x="15.85" y="52.83" width="5.29" height="5.28"/><rect class="f" x="15.85" y="47.55" width="5.29" height="5.28"/><rect class="f" x="15.85" y="42.26" width="5.29" height="5.29"/><rect class="e" x="15.85" y="36.98" width="5.29" height="5.28"/><rect class="e" x="15.85" y="31.7" width="5.29" height="5.28"/><rect class="f" x="15.85" y="26.41" width="5.29" height="5.29"/><rect class="f" x="10.57" y="100.37" width="5.28" height="5.28"/><rect class="f" x="10.57" y="95.09" width="5.28" height="5.28"/><rect class="e" x="10.57" y="89.8" width="5.28" height="5.29"/><rect class="e" x="10.57" y="84.52" width="5.28" height="5.28"/><rect class="f" x="10.57" y="79.24" width="5.28" height="5.28"/><rect class="f" x="10.57" y="73.96" width="5.28" height="5.29"/><rect class="f" x="10.57" y="68.67" width="5.28" height="5.28"/><rect class="f" x="10.57" y="63.39" width="5.28" height="5.28"/><rect class="f" x="10.57" y="58.11" width="5.28" height="5.29"/><rect class="f" x="10.57" y="52.83" width="5.28" height="5.28"/><rect class="e" x="10.57" y="47.55" width="5.28" height="5.28"/><rect class="e" x="10.57" y="42.26" width="5.28" height="5.29"/><rect class="f" x="10.57" y="36.98" width="5.28" height="5.28"/><rect class="f" x="10.57" y="31.7" width="5.28" height="5.28"/><rect class="f" x="5.29" y="89.8" width="5.28" height="5.29"/><rect class="f" x="5.29" y="84.52" width="5.28" height="5.28"/><rect class="e" x="5.29" y="79.24" width="5.28" height="5.28"/><rect class="e" x="5.29" y="73.96" width="5.28" height="5.29"/><rect class="e" x="5.29" y="68.67" width="5.28" height="5.28"/><rect class="e" x="5.29" y="63.39" width="5.28" height="5.28"/><rect class="e" x="5.29" y="58.11" width="5.28" height="5.29"/><rect class="e" x="5.29" y="52.83" width="5.28" height="5.28"/><rect class="f" x="5.29" y="47.55" width="5.28" height="5.28"/><rect class="f" x="5.29" y="42.26" width="5.28" height="5.29"/><rect class="f" y="79.24" width="5.29" height="5.28"/><rect class="f" y="73.96" width="5.29" height="5.29"/><rect class="f" y="68.67" width="5.29" height="5.28"/><rect class="f" y="63.39" width="5.29" height="5.28"/><rect class="f" y="58.11" width="5.29" height="5.29"/><rect class="f" y="52.83" width="5.29" height="5.28"/><rect class="f" x="68.68" y="132.07" width="5.29" height="5.28"/><rect class="e" x="68.68" y="126.78" width="5.29" height="5.28"/><rect class="f" x="68.68" y="121.5" width="5.29" height="5.29"/><rect class="d" x="68.68" y="116.22" width="5.29" height="5.28"/><rect class="g" x="68.68" y="110.94" width="5.29" height="5.28"/><rect class="g" x="68.68" y="105.65" width="5.29" height="5.29"/><rect class="g" x="68.68" y="100.37" width="5.29" height="5.28"/><rect class="g" x="68.68" y="95.09" width="5.29" height="5.28"/><rect class="f" x="68.68" y="89.8" width="5.29" height="5.29"/><rect class="e" x="68.68" y="84.52" width="5.29" height="5.28"/><rect class="f" x="68.68" y="79.24" width="5.29" height="5.28"/><rect class="e" x="68.68" y="73.96" width="5.29" height="5.29"/><rect class="e" x="68.68" y="68.67" width="5.29" height="5.28"/><rect class="e" x="68.68" y="63.39" width="5.29" height="5.28"/><rect class="e" x="68.68" y="58.11" width="5.29" height="5.29"/><rect class="f" x="68.68" y="52.83" width="5.29" height="5.28"/><rect class="e" x="68.68" y="47.55" width="5.29" height="5.28"/><rect class="f" x="68.68" y="42.26" width="5.29" height="5.29"/><rect class="g" x="68.68" y="36.98" width="5.29" height="5.28"/><rect class="g" x="68.68" y="31.7" width="5.29" height="5.28"/><rect class="g" x="68.68" y="26.41" width="5.29" height="5.29"/><rect class="g" x="68.68" y="21.13" width="5.29" height="5.28"/><rect class="d" x="68.68" y="15.85" width="5.29" height="5.28"/><rect class="f" x="68.68" y="10.56" width="5.29" height="5.29"/><rect class="e" x="68.68" y="5.28" width="5.29" height="5.28"/><rect class="f" x="68.68" width="5.29" height="5.28"/><rect class="f" x="73.96" y="132.07" width="5.28" height="5.28"/><rect class="e" x="73.96" y="126.78" width="5.28" height="5.28"/><rect class="f" x="73.96" y="121.5" width="5.28" height="5.29"/><rect class="d" x="73.96" y="116.22" width="5.28" height="5.28"/><rect class="d" x="73.96" y="110.94" width="5.28" height="5.28"/><rect class="d" x="73.96" y="105.65" width="5.28" height="5.29"/><rect class="d" x="73.96" y="100.37" width="5.28" height="5.28"/><rect class="d" x="73.96" y="95.09" width="5.28" height="5.28"/><rect class="f" x="73.96" y="89.8" width="5.28" height="5.29"/><rect class="e" x="73.96" y="84.52" width="5.28" height="5.28"/><rect class="f" x="73.96" y="79.24" width="5.28" height="5.28"/><rect class="e" x="73.96" y="73.96" width="5.28" height="5.29"/><rect class="e" x="73.96" y="68.67" width="5.28" height="5.28"/><rect class="e" x="73.96" y="63.39" width="5.28" height="5.28"/><rect class="e" x="73.96" y="58.11" width="5.28" height="5.29"/><rect class="f" x="73.96" y="52.83" width="5.28" height="5.28"/><rect class="e" x="73.96" y="47.55" width="5.28" height="5.28"/><rect class="f" x="73.96" y="42.26" width="5.28" height="5.29"/><rect class="d" x="73.96" y="36.98" width="5.28" height="5.28"/><rect class="d" x="73.96" y="31.7" width="5.28" height="5.28"/><rect class="d" x="73.96" y="26.41" width="5.28" height="5.29"/><rect class="d" x="73.96" y="21.13" width="5.28" height="5.28"/><rect class="d" x="73.96" y="15.85" width="5.28" height="5.28"/><rect class="f" x="73.96" y="10.56" width="5.28" height="5.29"/><rect class="e" x="73.96" y="5.28" width="5.28" height="5.28"/><rect class="f" x="73.96" width="5.28" height="5.28"/><rect class="f" x="79.24" y="132.07" width="5.28" height="5.28"/><rect class="e" x="79.24" y="126.78" width="5.28" height="5.28"/><rect class="f" x="79.24" y="121.5" width="5.28" height="5.29"/><rect class="h" x="79.24" y="116.22" width="5.28" height="5.28"/><rect class="h" x="79.24" y="110.94" width="5.28" height="5.28"/><rect class="h" x="79.24" y="105.65" width="5.28" height="5.29"/><rect class="h" x="79.24" y="100.37" width="5.28" height="5.28"/><rect class="h" x="79.24" y="95.09" width="5.28" height="5.28"/><rect class="h" x="79.24" y="89.8" width="5.28" height="5.29"/><rect class="f" x="79.24" y="84.52" width="5.28" height="5.28"/><rect class="e" x="79.24" y="79.24" width="5.28" height="5.28"/><rect class="f" x="79.24" y="73.96" width="5.28" height="5.29"/><rect class="f" x="79.24" y="68.67" width="5.28" height="5.28"/><rect class="f" x="79.24" y="63.39" width="5.28" height="5.28"/><rect class="f" x="79.24" y="58.11" width="5.28" height="5.29"/><rect class="e" x="79.24" y="52.83" width="5.28" height="5.28"/><rect class="f" x="79.24" y="47.55" width="5.28" height="5.28"/><rect class="h" x="79.24" y="42.26" width="5.28" height="5.29"/><rect class="h" x="79.24" y="36.98" width="5.28" height="5.28"/><rect class="h" x="79.24" y="31.7" width="5.28" height="5.28"/><rect class="h" x="79.24" y="26.41" width="5.28" height="5.29"/><rect class="h" x="79.24" y="21.13" width="5.28" height="5.28"/><rect class="h" x="79.24" y="15.85" width="5.28" height="5.28"/><rect class="f" x="79.24" y="10.56" width="5.28" height="5.29"/><rect class="e" x="79.24" y="5.28" width="5.28" height="5.28"/><rect class="f" x="79.24" width="5.28" height="5.28"/><rect class="f" x="84.53" y="126.78" width="5.29" height="5.28"/><rect class="e" x="84.53" y="121.5" width="5.29" height="5.29"/><rect class="f" x="84.53" y="116.22" width="5.29" height="5.28"/><rect class="d" x="84.53" y="110.94" width="5.29" height="5.28"/><rect class="d" x="84.53" y="105.65" width="5.29" height="5.29"/><rect class="d" x="84.53" y="100.37" width="5.29" height="5.28"/><rect class="d" x="84.53" y="95.09" width="5.29" height="5.28"/><rect class="d" x="84.53" y="89.8" width="5.29" height="5.29"/><rect class="d" x="84.53" y="84.52" width="5.29" height="5.28"/><rect class="f" x="84.53" y="79.24" width="5.29" height="5.28"/><rect class="e" x="84.53" y="73.96" width="5.29" height="5.29"/><rect class="e" x="84.53" y="68.67" width="5.29" height="5.28"/><rect class="e" x="84.53" y="63.39" width="5.29" height="5.28"/><rect class="e" x="84.53" y="58.11" width="5.29" height="5.29"/><rect class="f" x="84.53" y="52.83" width="5.29" height="5.28"/><rect class="d" x="84.53" y="47.55" width="5.29" height="5.28"/><rect class="d" x="84.53" y="42.26" width="5.29" height="5.29"/><rect class="d" x="84.53" y="36.98" width="5.29" height="5.28"/><rect class="d" x="84.53" y="31.7" width="5.29" height="5.28"/><rect class="d" x="84.53" y="26.41" width="5.29" height="5.29"/><rect class="d" x="84.53" y="21.13" width="5.29" height="5.28"/><rect class="f" x="84.53" y="15.85" width="5.29" height="5.28"/><rect class="e" x="84.53" y="10.56" width="5.29" height="5.29"/><rect class="f" x="84.53" y="5.28" width="5.29" height="5.28"/><rect class="f" x="89.81" y="126.78" width="5.28" height="5.28"/><rect class="e" x="89.81" y="121.5" width="5.28" height="5.29"/><rect class="f" x="89.81" y="116.22" width="5.28" height="5.28"/><rect class="d" x="89.81" y="110.94" width="5.28" height="5.28"/><rect class="g" x="89.81" y="105.65" width="5.28" height="5.29"/><rect class="g" x="89.81" y="100.37" width="5.28" height="5.28"/><rect class="g" x="89.81" y="95.09" width="5.28" height="5.28"/><rect class="g" x="89.81" y="89.8" width="5.28" height="5.29"/><rect class="g" x="89.81" y="84.52" width="5.28" height="5.28"/><rect class="d" x="89.81" y="79.24" width="5.28" height="5.28"/><rect class="f" x="89.81" y="73.96" width="5.28" height="5.29"/><rect class="f" x="89.81" y="68.67" width="5.28" height="5.28"/><rect class="f" x="89.81" y="63.39" width="5.28" height="5.28"/><rect class="f" x="89.81" y="58.11" width="5.28" height="5.29"/><rect class="d" x="89.81" y="52.83" width="5.28" height="5.28"/><rect class="g" x="89.81" y="47.55" width="5.28" height="5.28"/><rect class="g" x="89.81" y="42.26" width="5.28" height="5.29"/><rect class="g" x="89.81" y="36.98" width="5.28" height="5.28"/><rect class="g" x="89.81" y="31.7" width="5.28" height="5.28"/><rect class="g" x="89.81" y="26.41" width="5.28" height="5.29"/><rect class="d" x="89.81" y="21.13" width="5.28" height="5.28"/><rect class="f" x="89.81" y="15.85" width="5.28" height="5.28"/><rect class="e" x="89.81" y="10.56" width="5.28" height="5.29"/><rect class="f" x="89.81" y="5.28" width="5.28" height="5.28"/><rect class="f" x="95.09" y="121.5" width="5.28" height="5.29"/><rect class="e" x="95.09" y="116.22" width="5.28" height="5.28"/><rect class="f" x="95.09" y="110.94" width="5.28" height="5.28"/><rect class="d" x="95.09" y="105.65" width="5.28" height="5.29"/><rect class="d" x="95.09" y="100.37" width="5.28" height="5.28"/><rect class="d" x="95.09" y="95.09" width="5.28" height="5.28"/><rect class="d" x="95.09" y="89.8" width="5.28" height="5.29"/><rect class="d" x="95.09" y="84.52" width="5.28" height="5.28"/><rect class="d" x="95.09" y="79.24" width="5.28" height="5.28"/><rect class="d" x="95.09" y="73.96" width="5.28" height="5.29"/><rect class="d" x="95.09" y="68.67" width="5.28" height="5.28"/><rect class="d" x="95.09" y="63.39" width="5.28" height="5.28"/><rect class="d" x="95.09" y="58.11" width="5.28" height="5.29"/><rect class="d" x="95.09" y="52.83" width="5.28" height="5.28"/><rect class="d" x="95.09" y="47.55" width="5.28" height="5.28"/><rect class="d" x="95.09" y="42.26" width="5.28" height="5.29"/><rect class="d" x="95.09" y="36.98" width="5.28" height="5.28"/><rect class="d" x="95.09" y="31.7" width="5.28" height="5.28"/><rect class="d" x="95.09" y="26.41" width="5.28" height="5.29"/><rect class="f" x="95.09" y="21.13" width="5.28" height="5.28"/><rect class="e" x="95.09" y="15.85" width="5.28" height="5.28"/><rect class="f" x="95.09" y="10.56" width="5.28" height="5.29"/><rect class="f" x="100.37" y="121.5" width="5.29" height="5.29"/><rect class="e" x="100.37" y="116.22" width="5.29" height="5.28"/><rect class="f" x="100.37" y="110.94" width="5.29" height="5.28"/><rect class="h" x="100.37" y="105.65" width="5.29" height="5.29"/><rect class="h" x="100.37" y="100.37" width="5.29" height="5.28"/><rect class="h" x="100.37" y="95.09" width="5.29" height="5.28"/><rect class="h" x="100.37" y="89.8" width="5.29" height="5.29"/><rect class="h" x="100.37" y="84.52" width="5.29" height="5.28"/><rect class="h" x="100.37" y="79.24" width="5.29" height="5.28"/><rect class="h" x="100.37" y="73.96" width="5.29" height="5.29"/><rect class="h" x="100.37" y="68.67" width="5.29" height="5.28"/><rect class="h" x="100.37" y="63.39" width="5.29" height="5.28"/><rect class="h" x="100.37" y="58.11" width="5.29" height="5.29"/><rect class="h" x="100.37" y="52.83" width="5.29" height="5.28"/><rect class="h" x="100.37" y="47.55" width="5.29" height="5.28"/><rect class="h" x="100.37" y="42.26" width="5.29" height="5.29"/><rect class="h" x="100.37" y="36.98" width="5.29" height="5.28"/><rect class="h" x="100.37" y="31.7" width="5.29" height="5.28"/><rect class="h" x="100.37" y="26.41" width="5.29" height="5.29"/><rect class="f" x="100.37" y="21.13" width="5.29" height="5.28"/><rect class="e" x="100.37" y="15.85" width="5.29" height="5.28"/><rect class="f" x="100.37" y="10.56" width="5.29" height="5.29"/><rect class="f" x="105.66" y="116.22" width="5.28" height="5.28"/><rect class="e" x="105.66" y="110.94" width="5.28" height="5.28"/><rect class="f" x="105.66" y="105.65" width="5.28" height="5.29"/><rect class="d" x="105.66" y="100.37" width="5.28" height="5.28"/><rect class="d" x="105.66" y="95.09" width="5.28" height="5.28"/><rect class="d" x="105.66" y="89.8" width="5.28" height="5.29"/><rect class="d" x="105.66" y="84.52" width="5.28" height="5.28"/><rect class="d" x="105.66" y="79.24" width="5.28" height="5.28"/><rect class="d" x="105.66" y="73.96" width="5.28" height="5.29"/><rect class="d" x="105.66" y="68.67" width="5.28" height="5.28"/><rect class="d" x="105.66" y="63.39" width="5.28" height="5.28"/><rect class="d" x="105.66" y="58.11" width="5.28" height="5.29"/><rect class="d" x="105.66" y="52.83" width="5.28" height="5.28"/><rect class="d" x="105.66" y="47.55" width="5.28" height="5.28"/><rect class="d" x="105.66" y="42.26" width="5.28" height="5.29"/><rect class="d" x="105.66" y="36.98" width="5.28" height="5.28"/><rect class="d" x="105.66" y="31.7" width="5.28" height="5.28"/><rect class="f" x="105.66" y="26.41" width="5.28" height="5.29"/><rect class="e" x="105.66" y="21.13" width="5.28" height="5.28"/><rect class="f" x="105.66" y="15.85" width="5.28" height="5.28"/><rect class="f" x="110.94" y="110.94" width="5.28" height="5.28"/><rect class="e" x="110.94" y="105.65" width="5.28" height="5.29"/><rect class="f" x="110.94" y="100.37" width="5.28" height="5.28"/><rect class="f" x="110.94" y="95.09" width="5.28" height="5.28"/><rect class="d" x="110.94" y="89.8" width="5.28" height="5.29"/><rect class="d" x="110.94" y="84.52" width="5.28" height="5.28"/><rect class="g" x="110.94" y="79.24" width="5.28" height="5.28"/><rect class="g" x="110.94" y="73.96" width="5.28" height="5.29"/><rect class="g" x="110.94" y="68.67" width="5.28" height="5.28"/><rect class="g" x="110.94" y="63.39" width="5.28" height="5.28"/><rect class="g" x="110.94" y="58.11" width="5.28" height="5.29"/><rect class="g" x="110.94" y="52.83" width="5.28" height="5.28"/><rect class="d" x="110.94" y="47.55" width="5.28" height="5.28"/><rect class="d" x="110.94" y="42.26" width="5.28" height="5.29"/><rect class="f" x="110.94" y="36.98" width="5.28" height="5.28"/><rect class="f" x="110.94" y="31.7" width="5.28" height="5.28"/><rect class="e" x="110.94" y="26.41" width="5.28" height="5.29"/><rect class="f" x="110.94" y="21.13" width="5.28" height="5.28"/><rect class="f" x="116.22" y="105.65" width="5.29" height="5.29"/><rect class="e" x="116.22" y="100.37" width="5.29" height="5.28"/><rect class="e" x="116.22" y="95.09" width="5.29" height="5.28"/><rect class="f" x="116.22" y="89.8" width="5.29" height="5.29"/><rect class="f" x="116.22" y="84.52" width="5.29" height="5.28"/><rect class="d" x="116.22" y="79.24" width="5.29" height="5.28"/><rect class="d" x="116.22" y="73.96" width="5.29" height="5.29"/><rect class="d" x="116.22" y="68.67" width="5.29" height="5.28"/><rect class="d" x="116.22" y="63.39" width="5.29" height="5.28"/><rect class="d" x="116.22" y="58.11" width="5.29" height="5.29"/><rect class="d" x="116.22" y="52.83" width="5.29" height="5.28"/><rect class="f" x="116.22" y="47.55" width="5.29" height="5.28"/><rect class="f" x="116.22" y="42.26" width="5.29" height="5.29"/><rect class="e" x="116.22" y="36.98" width="5.29" height="5.28"/><rect class="e" x="116.22" y="31.7" width="5.29" height="5.28"/><rect class="f" x="116.22" y="26.41" width="5.29" height="5.29"/><rect class="f" x="121.51" y="100.37" width="5.28" height="5.28"/><rect class="f" x="121.51" y="95.09" width="5.28" height="5.28"/><rect class="e" x="121.51" y="89.8" width="5.28" height="5.29"/><rect class="e" x="121.51" y="84.52" width="5.28" height="5.28"/><rect class="f" x="121.51" y="79.24" width="5.28" height="5.28"/><rect class="f" x="121.51" y="73.96" width="5.28" height="5.29"/><rect class="f" x="121.51" y="68.67" width="5.28" height="5.28"/><rect class="f" x="121.51" y="63.39" width="5.28" height="5.28"/><rect class="f" x="121.51" y="58.11" width="5.28" height="5.29"/><rect class="f" x="121.51" y="52.83" width="5.28" height="5.28"/><rect class="e" x="121.51" y="47.55" width="5.28" height="5.28"/><rect class="e" x="121.51" y="42.26" width="5.28" height="5.29"/><rect class="f" x="121.51" y="36.98" width="5.28" height="5.28"/><rect class="f" x="121.51" y="31.7" width="5.28" height="5.28"/><rect class="f" x="126.79" y="89.8" width="5.28" height="5.29"/><rect class="f" x="126.79" y="84.52" width="5.28" height="5.28"/><rect class="e" x="126.79" y="79.24" width="5.28" height="5.28"/><rect class="e" x="126.79" y="73.96" width="5.28" height="5.29"/><rect class="e" x="126.79" y="68.67" width="5.28" height="5.28"/><rect class="e" x="126.79" y="63.39" width="5.28" height="5.28"/><rect class="e" x="126.79" y="58.11" width="5.28" height="5.29"/><rect class="e" x="126.79" y="52.83" width="5.28" height="5.28"/><rect class="f" x="126.79" y="47.55" width="5.28" height="5.28"/><rect class="f" x="126.79" y="42.26" width="5.28" height="5.29"/><rect class="f" x="132.07" y="79.24" width="5.29" height="5.28"/><rect class="f" x="132.07" y="73.96" width="5.29" height="5.29"/><rect class="f" x="132.07" y="68.67" width="5.29" height="5.28"/><rect class="f" x="132.07" y="63.39" width="5.29" height="5.28"/><rect class="f" x="132.07" y="58.11" width="5.29" height="5.29"/><rect class="f" x="132.07" y="52.83" width="5.29" height="5.28"/></g></g></g></svg>