<?xml version="1.0" encoding="UTF-8"?><svg xmlns="http://www.w3.org/2000/svg" viewBox="0 0 707.52 707.52"><defs><style>.d{fill:#fff;}.e{fill:#e5b530;}.f{fill:#474747;}.g{fill:#dcdcdc;}.g,.h{fill-rule:evenodd;}</style></defs><g id="a"/><g id="b"><g id="c"><g><rect class="d" x="544.24" y="54.42" width="54.43" height="54.43"/><rect class="d" x="489.82" y="108.85" width="54.42" height="54.42"/><rect class="d" x="435.4" y="163.27" width="54.42" height="54.42"/><rect class="d" x="380.97" y="217.7" width="54.43" height="54.43"/><rect class="d" x="326.55" y="272.12" width="54.42" height="54.42"/><rect class="d" x="272.12" y="326.55" width="54.42" height="54.43"/><polygon class="g" points="653.09 54.42 598.67 54.42 598.67 108.85 544.24 108.85 544.24 163.27 489.82 163.27 489.82 217.7 435.4 217.7 435.4 272.12 380.97 272.12 380.97 326.55 326.55 326.55 326.55 380.97 217.7 380.97 217.7 435.4 272.12 435.4 272.12 489.82 326.55 489.82 326.55 435.4 380.97 435.4 380.97 380.97 435.4 380.97 435.4 326.55 489.82 326.55 489.82 272.12 544.24 272.12 544.24 217.7 598.67 217.7 598.67 163.27 653.09 163.27 653.09 54.42"/><rect class="f" x="163.27" y="489.82" width="54.42" height="54.43"/><rect class="f" x="108.85" y="544.24" width="54.42" height="54.42"/><rect class="f" x="54.42" y="598.67" width="54.43" height="54.42"/><rect class="e" x="217.7" y="435.4" width="54.42" height="54.42"/><polygon class="h" points="653.09 163.27 707.52 163.27 707.52 0 544.24 0 544.24 54.42 653.09 54.42 653.09 163.27"/><rect x="489.82" y="54.42" width="54.42" height="54.43"/><rect x="435.4" y="108.85" width="54.42" height="54.42"/><rect x="380.97" y="163.27" width="54.43" height="54.42"/><rect x="598.67" y="163.27" width="54.43" height="54.42"/><rect x="326.55" y="217.7" width="54.42" height="54.43"/><rect x="544.24" y="217.7" width="54.43" height="54.43"/><rect x="272.12" y="272.12" width="54.42" height="54.42"/><rect x="489.82" y="272.12" width="54.42" height="54.42"/><rect x="54.42" y="326.55" width="108.85" height="54.43"/><rect x="217.7" y="326.55" width="54.42" height="54.43"/><rect x="435.4" y="326.55" width="54.42" height="54.43"/><rect x="163.27" y="380.97" width="54.42" height="108.85"/><rect x="380.97" y="380.97" width="54.43" height="54.42"/><rect x="326.55" y="435.4" width="54.42" height="54.42"/><rect x="108.85" y="489.82" width="54.42" height="54.43"/><rect x="217.7" y="489.82" width="108.85" height="54.43"/><polygon class="h" points="108.85 598.67 108.85 544.24 0 544.24 0 653.09 54.42 653.09 54.42 598.67 108.85 598.67"/><rect x="163.27" y="544.24" width="54.42" height="54.42"/><rect x="326.55" y="544.24" width="54.42" height="108.85"/><polygon class="h" points="108.85 653.09 54.42 653.09 54.42 707.52 163.27 707.52 163.27 598.67 108.85 598.67 108.85 653.09"/></g></g></g></svg>